  0
SECTION
  2
HEADER
  9
$ACADVER
  1
AC1024
  9
$ACADMAINTVER
 70
6
  9
$DWGCODEPAGE
  3
ANSI_1252
  9
$LASTSAVEDBY
  1
ezdxf
  9
$INSBASE
 10
0.0
 20
0.0
 30
0.0
  9
$EXTMIN
 10
1e+20
 20
1e+20
 30
1e+20
  9
$EXTMAX
 10
-1e+20
 20
-1e+20
 30
-1e+20
  9
$LIMMIN
 10
0.0
 20
0.0
  9
$LIMMAX
 10
420.0
 20
297.0
  9
$ORTHOMODE
 70
0
  9
$REGENMODE
 70
1
  9
$FILLMODE
 70
1
  9
$QTEXTMODE
 70
0
  9
$MIRRTEXT
 70
1
  9
$LTSCALE
 40
1.0
  9
$ATTMODE
 70
1
  9
$TEXTSIZE
 40
2.5
  9
$TRACEWID
 40
1.0
  9
$TEXTSTYLE
  7
Standard
  9
$CLAYER
  8
0
  9
$CELTYPE
  6
ByLayer
  9
$CECOLOR
 62
256
  9
$CELTSCALE
 40
1.0
  9
$DISPSILH
 70
0
  9
$DIMSCALE
 40
1.0
  9
$DIMASZ
 40
2.5
  9
$DIMEXO
 40
0.625
  9
$DIMDLI
 40
3.75
  9
$DIMRND
 40
0.0
  9
$DIMDLE
 40
0.0
  9
$DIMEXE
 40
1.25
  9
$DIMTP
 40
0.0
  9
$DIMTM
 40
0.0
  9
$DIMTXT
 40
2.5
  9
$DIMCEN
 40
2.5
  9
$DIMTSZ
 40
0.0
  9
$DIMTOL
 70
0
  9
$DIMLIM
 70
0
  9
$DIMTIH
 70
0
  9
$DIMTOH
 70
0
  9
$DIMSE1
 70
0
  9
$DIMSE2
 70
0
  9
$DIMTAD
 70
1
  9
$DIMZIN
 70
8
  9
$DIMBLK
  1

  9
$DIMASO
 70
1
  9
$DIMSHO
 70
1
  9
$DIMPOST
  1

  9
$DIMAPOST
  1

  9
$DIMALT
 70
0
  9
$DIMALTD
 70
3
  9
$DIMALTF
 40
0.03937007874
  9
$DIMLFAC
 40
1.0
  9
$DIMTOFL
 70
1
  9
$DIMTVP
 40
0.0
  9
$DIMTIX
 70
0
  9
$DIMSOXD
 70
0
  9
$DIMSAH
 70
0
  9
$DIMBLK1
  1

  9
$DIMBLK2
  1

  9
$DIMSTYLE
  2
ISO-25
  9
$DIMCLRD
 70
0
  9
$DIMCLRE
 70
0
  9
$DIMCLRT
 70
0
  9
$DIMTFAC
 40
1.0
  9
$DIMGAP
 40
0.625
  9
$DIMJUST
 70
0
  9
$DIMSD1
 70
0
  9
$DIMSD2
 70
0
  9
$DIMTOLJ
 70
0
  9
$DIMTZIN
 70
8
  9
$DIMALTZ
 70
0
  9
$DIMALTTZ
 70
0
  9
$DIMUPT
 70
0
  9
$DIMDEC
 70
2
  9
$DIMTDEC
 70
2
  9
$DIMALTU
 70
2
  9
$DIMALTTD
 70
3
  9
$DIMTXSTY
  7
Standard
  9
$DIMAUNIT
 70
0
  9
$DIMADEC
 70
0
  9
$DIMALTRND
 40
0.0
  9
$DIMAZIN
 70
0
  9
$DIMDSEP
 70
44
  9
$DIMATFIT
 70
3
  9
$DIMFRAC
 70
0
  9
$DIMLDRBLK
  1

  9
$DIMLUNIT
 70
2
  9
$DIMLWD
 70
-2
  9
$DIMLWE
 70
-2
  9
$DIMTMOVE
 70
0
  9
$DIMFXL
 40
1.0
  9
$DIMFXLON
 70
0
  9
$DIMJOGANG
 40
0.785398163397
  9
$DIMTFILL
 70
0
  9
$DIMTFILLCLR
 70
0
  9
$DIMARCSYM
 70
0
  9
$DIMLTYPE
  6

  9
$DIMLTEX1
  6

  9
$DIMLTEX2
  6

  9
$DIMTXTDIRECTION
 70
0
  9
$LUNITS
 70
2
  9
$LUPREC
 70
4
  9
$SKETCHINC
 40
1.0
  9
$FILLETRAD
 40
10.0
  9
$AUNITS
 70
0
  9
$AUPREC
 70
2
  9
$MENU
  1
.
  9
$ELEVATION
 40
0.0
  9
$PELEVATION
 40
0.0
  9
$THICKNESS
 40
0.0
  9
$LIMCHECK
 70
0
  9
$CHAMFERA
 40
0.0
  9
$CHAMFERB
 40
0.0
  9
$CHAMFERC
 40
0.0
  9
$CHAMFERD
 40
0.0
  9
$SKPOLY
 70
0
  9
$TDCREATE
 40
2461173.6077314815
  9
$TDUCREATE
 40
2458532.153996898
  9
$TDUPDATE
 40
2461173.6077314815
  9
$TDUUPDATE
 40
2458532.1544311
  9
$TDINDWG
 40
0.0
  9
$TDUSRTIMER
 40
0.0
  9
$USRTIMER
 70
1
  9
$ANGBASE
 50
0.0
  9
$ANGDIR
 70
0
  9
$PDMODE
 70
0
  9
$PDSIZE
 40
0.0
  9
$PLINEWID
 40
0.0
  9
$SPLFRAME
 70
0
  9
$SPLINETYPE
 70
6
  9
$SPLINESEGS
 70
8
  9
$HANDSEED
  5
63
  9
$SURFTAB1
 70
6
  9
$SURFTAB2
 70
6
  9
$SURFTYPE
 70
6
  9
$SURFU
 70
6
  9
$SURFV
 70
6
  9
$UCSBASE
  2

  9
$UCSNAME
  2

  9
$UCSORG
 10
0.0
 20
0.0
 30
0.0
  9
$UCSXDIR
 10
1.0
 20
0.0
 30
0.0
  9
$UCSYDIR
 10
0.0
 20
1.0
 30
0.0
  9
$UCSORTHOREF
  2

  9
$UCSORTHOVIEW
 70
0
  9
$UCSORGTOP
 10
0.0
 20
0.0
 30
0.0
  9
$UCSORGBOTTOM
 10
0.0
 20
0.0
 30
0.0
  9
$UCSORGLEFT
 10
0.0
 20
0.0
 30
0.0
  9
$UCSORGRIGHT
 10
0.0
 20
0.0
 30
0.0
  9
$UCSORGFRONT
 10
0.0
 20
0.0
 30
0.0
  9
$UCSORGBACK
 10
0.0
 20
0.0
 30
0.0
  9
$PUCSBASE
  2

  9
$PUCSNAME
  2

  9
$PUCSORG
 10
0.0
 20
0.0
 30
0.0
  9
$PUCSXDIR
 10
1.0
 20
0.0
 30
0.0
  9
$PUCSYDIR
 10
0.0
 20
1.0
 30
0.0
  9
$PUCSORTHOREF
  2

  9
$PUCSORTHOVIEW
 70
0
  9
$PUCSORGTOP
 10
0.0
 20
0.0
 30
0.0
  9
$PUCSORGBOTTOM
 10
0.0
 20
0.0
 30
0.0
  9
$PUCSORGLEFT
 10
0.0
 20
0.0
 30
0.0
  9
$PUCSORGRIGHT
 10
0.0
 20
0.0
 30
0.0
  9
$PUCSORGFRONT
 10
0.0
 20
0.0
 30
0.0
  9
$PUCSORGBACK
 10
0.0
 20
0.0
 30
0.0
  9
$USERI1
 70
0
  9
$USERI2
 70
0
  9
$USERI3
 70
0
  9
$USERI4
 70
0
  9
$USERI5
 70
0
  9
$USERR1
 40
0.0
  9
$USERR2
 40
0.0
  9
$USERR3
 40
0.0
  9
$USERR4
 40
0.0
  9
$USERR5
 40
0.0
  9
$WORLDVIEW
 70
1
  9
$SHADEDGE
 70
3
  9
$SHADEDIF
 70
70
  9
$TILEMODE
 70
1
  9
$MAXACTVP
 70
64
  9
$PINSBASE
 10
0.0
 20
0.0
 30
0.0
  9
$PLIMCHECK
 70
0
  9
$PEXTMIN
 10
1e+20
 20
1e+20
 30
1e+20
  9
$PEXTMAX
 10
-1e+20
 20
-1e+20
 30
-1e+20
  9
$PLIMMIN
 10
0.0
 20
0.0
  9
$PLIMMAX
 10
420.0
 20
297.0
  9
$UNITMODE
 70
0
  9
$VISRETAIN
 70
1
  9
$PLINEGEN
 70
0
  9
$PSLTSCALE
 70
1
  9
$TREEDEPTH
 70
3020
  9
$CMLSTYLE
  2
Standard
  9
$CMLJUST
 70
0
  9
$CMLSCALE
 40
20.0
  9
$PROXYGRAPHICS
 70
1
  9
$MEASUREMENT
 70
1
  9
$CELWEIGHT
370
-1
  9
$ENDCAPS
280
0
  9
$JOINSTYLE
280
0
  9
$LWDISPLAY
290
0
  9
$INSUNITS
 70
5
  9
$HYPERLINKBASE
  1

  9
$STYLESHEET
  1

  9
$XEDIT
290
1
  9
$CEPSNTYPE
380
0
  9
$PSTYLEMODE
290
1
  9
$FINGERPRINTGUID
  2
{680CE50E-F1CE-4415-ACAB-9F7C77B38E65}
  9
$VERSIONGUID
  2
{6A361FF9-2A95-4AB1-B5DC-CA0DC6C76942}
  9
$EXTNAMES
290
1
  9
$PSVPSCALE
 40
0.0
  9
$OLESTARTUP
290
0
  9
$SORTENTS
280
127
  9
$INDEXCTL
280
0
  9
$HIDETEXT
280
1
  9
$XCLIPFRAME
280
0
  9
$HALOGAP
280
0
  9
$OBSCOLOR
 70
257
  9
$OBSLTYPE
280
0
  9
$INTERSECTIONDISPLAY
280
0
  9
$INTERSECTIONCOLOR
 70
257
  9
$DIMASSOC
280
2
  9
$PROJECTNAME
  1

  9
$CAMERADISPLAY
290
0
  9
$LENSLENGTH
 40
50.0
  9
$CAMERAHEIGHT
 40
0.0
  9
$STEPSPERSEC
 40
24.0
  9
$STEPSIZE
 40
100.0
  9
$3DDWFPREC
 40
2.0
  9
$PSOLWIDTH
 40
0.005
  9
$PSOLHEIGHT
 40
0.08
  9
$LOFTANG1
 40
1.570796326795
  9
$LOFTANG2
 40
1.570796326795
  9
$LOFTMAG1
 40
0.0
  9
$LOFTMAG2
 40
0.0
  9
$LOFTPARAM
 70
7
  9
$LOFTNORMALS
280
1
  9
$LATITUDE
 40
37.795
  9
$LONGITUDE
 40
-122.394
  9
$NORTHDIRECTION
 40
0.0
  9
$TIMEZONE
 70
-8000
  9
$LIGHTGLYPHDISPLAY
280
1
  9
$TILEMODELIGHTSYNCH
280
1
  9
$CMATERIAL
347
20
  9
$SOLIDHIST
280
0
  9
$SHOWHIST
280
1
  9
$DWFFRAME
280
2
  9
$DGNFRAME
280
2
  9
$REALWORLDSCALE
290
1
  9
$INTERFERECOLOR
 62
256
  9
$CSHADOW
280
0
  9
$SHADOWPLANELOCATION
 40
0.0
  0
ENDSEC
  0
SECTION
  2
CLASSES
  0
CLASS
  1
ACDBDICTIONARYWDFLT
  2
AcDbDictionaryWithDefault
  3
ObjectDBX Classes
 90
0
 91
0
280
0
281
0
  0
CLASS
  1
SUN
  2
AcDbSun
  3
SCENEOE
 90
1153
 91
0
280
0
281
0
  0
CLASS
  1
VISUALSTYLE
  2
AcDbVisualStyle
  3
ObjectDBX Classes
 90
4095
 91
0
280
0
281
0
  0
CLASS
  1
MATERIAL
  2
AcDbMaterial
  3
ObjectDBX Classes
 90
1153
 91
0
280
0
281
0
  0
CLASS
  1
SCALE
  2
AcDbScale
  3
ObjectDBX Classes
 90
1153
 91
0
280
0
281
0
  0
CLASS
  1
TABLESTYLE
  2
AcDbTableStyle
  3
ObjectDBX Classes
 90
4095
 91
0
280
0
281
0
  0
CLASS
  1
MLEADERSTYLE
  2
AcDbMLeaderStyle
  3
ACDB_MLEADERSTYLE_CLASS
 90
4095
 91
0
280
0
281
0
  0
CLASS
  1
DICTIONARYVAR
  2
AcDbDictionaryVar
  3
ObjectDBX Classes
 90
0
 91
0
280
0
281
0
  0
CLASS
  1
CELLSTYLEMAP
  2
AcDbCellStyleMap
  3
ObjectDBX Classes
 90
1152
 91
0
280
0
281
0
  0
CLASS
  1
MENTALRAYRENDERSETTINGS
  2
AcDbMentalRayRenderSettings
  3
SCENEOE
 90
1024
 91
0
280
0
281
0
  0
CLASS
  1
ACDBDETAILVIEWSTYLE
  2
AcDbDetailViewStyle
  3
ObjectDBX Classes
 90
1025
 91
0
280
0
281
0
  0
CLASS
  1
ACDBSECTIONVIEWSTYLE
  2
AcDbSectionViewStyle
  3
ObjectDBX Classes
 90
1025
 91
0
280
0
281
0
  0
CLASS
  1
RASTERVARIABLES
  2
AcDbRasterVariables
  3
ISM
 90
0
 91
0
280
0
281
0
  0
CLASS
  1
ACDBPLACEHOLDER
  2
AcDbPlaceHolder
  3
ObjectDBX Classes
 90
0
 91
0
280
0
281
0
  0
CLASS
  1
LAYOUT
  2
AcDbLayout
  3
ObjectDBX Classes
 90
0
 91
0
280
0
281
0
  0
ENDSEC
  0
SECTION
  2
TABLES
  0
TABLE
  2
VPORT
  5
8
330
0
100
AcDbSymbolTable
 70
1
  0
VPORT
  5
23
330
8
100
AcDbSymbolTableRecord
100
AcDbViewportTableRecord
  2
*Active
 70
0
 10
0.0
 20
0.0
 11
1.0
 21
1.0
 12
0.0
 22
0.0
 13
0.0
 23
0.0
 14
0.5
 24
0.5
 15
0.5
 25
0.5
 16
0.0
 26
0.0
 36
1.0
 17
0.0
 27
0.0
 37
0.0
 40
1000.0
 41
1.34
 42
50.0
 43
0.0
 44
0.0
 50
0.0
 51
0.0
 71
0
 72
1000
 73
1
 74
3
 75
0
 76
0
 77
0
 78
0
281
0
 65
0
146
0.0
  0
ENDTAB
  0
TABLE
  2
LTYPE
  5
2
330
0
100
AcDbSymbolTable
 70
3
  0
LTYPE
  5
24
330
2
100
AcDbSymbolTableRecord
100
AcDbLinetypeTableRecord
  2
ByBlock
 70
0
  3

 72
65
 73
0
 40
0.0
  0
LTYPE
  5
25
330
2
100
AcDbSymbolTableRecord
100
AcDbLinetypeTableRecord
  2
ByLayer
 70
0
  3

 72
65
 73
0
 40
0.0
  0
LTYPE
  5
26
330
2
100
AcDbSymbolTableRecord
100
AcDbLinetypeTableRecord
  2
Continuous
 70
0
  3

 72
65
 73
0
 40
0.0
  0
ENDTAB
  0
TABLE
  2
LAYER
  5
1
330
0
100
AcDbSymbolTable
 70
9
  0
LAYER
  5
27
330
1
100
AcDbSymbolTableRecord
100
AcDbLayerTableRecord
  2
0
 70
0
 62
7
  6
Continuous
370
-3
390
13
347
21
  0
LAYER
  5
28
330
1
100
AcDbSymbolTableRecord
100
AcDbLayerTableRecord
  2
Defpoints
 70
0
 62
7
  6
Continuous
290
0
370
-3
390
13
347
21
  0
LAYER
  5
2F
330
1
100
AcDbSymbolTableRecord
100
AcDbLayerTableRecord
  2
COUTURE
 70
0
 62
7
  6
Continuous
370
-3
390
13
347
21
  0
LAYER
  5
30
330
1
100
AcDbSymbolTableRecord
100
AcDbLayerTableRecord
  2
DECOUPE
 70
0
 62
2
  6
Continuous
370
-3
390
13
347
21
  0
LAYER
  5
31
330
1
100
AcDbSymbolTableRecord
100
AcDbLayerTableRecord
  2
DROIT_FIL
 70
0
 62
3
  6
Continuous
370
-3
390
13
347
21
  0
LAYER
  5
32
330
1
100
AcDbSymbolTableRecord
100
AcDbLayerTableRecord
  2
CRANS
 70
0
 62
1
  6
Continuous
370
-3
390
13
347
21
  0
LAYER
  5
33
330
1
100
AcDbSymbolTableRecord
100
AcDbLayerTableRecord
  2
MESURES
 70
0
 62
4
  6
Continuous
370
-3
390
13
347
21
  0
LAYER
  5
34
330
1
100
AcDbSymbolTableRecord
100
AcDbLayerTableRecord
  2
ANNOTATION
 70
0
 62
6
  6
Continuous
370
-3
390
13
347
21
  0
LAYER
  5
35
330
1
100
AcDbSymbolTableRecord
100
AcDbLayerTableRecord
  2
META
 70
0
 62
8
  6
Continuous
370
-3
390
13
347
21
  0
ENDTAB
  0
TABLE
  2
STYLE
  5
5
330
0
100
AcDbSymbolTable
 70
1
  0
STYLE
  5
29
330
5
100
AcDbSymbolTableRecord
100
AcDbTextStyleTableRecord
  2
Standard
 70
0
 40
0.0
 41
1.0
 50
0.0
 71
0
 42
2.5
  3
txt
  4

  0
ENDTAB
  0
TABLE
  2
VIEW
  5
7
330
0
100
AcDbSymbolTable
 70
0
  0
ENDTAB
  0
TABLE
  2
UCS
  5
6
330
0
100
AcDbSymbolTable
 70
0
  0
ENDTAB
  0
TABLE
  2
APPID
  5
3
330
0
100
AcDbSymbolTable
 70
3
  0
APPID
  5
2A
330
3
100
AcDbSymbolTableRecord
100
AcDbRegAppTableRecord
  2
ACAD
 70
0
  0
APPID
  5
60
330
3
100
AcDbSymbolTableRecord
100
AcDbRegAppTableRecord
  2
HATCHBACKGROUNDCOLOR
 70
0
  0
APPID
  5
61
330
3
100
AcDbSymbolTableRecord
100
AcDbRegAppTableRecord
  2
EZDXF
 70
0
  0
ENDTAB
  0
TABLE
  2
DIMSTYLE
  5
4
330
0
100
AcDbSymbolTable
 70
1
100
AcDbDimStyleTable
  0
DIMSTYLE
105
2B
330
4
100
AcDbSymbolTableRecord
100
AcDbDimStyleTableRecord
  2
Standard
 70
0
 40
1.0
 41
2.5
 42
0.625
 43
3.75
 44
1.25
 45
0.0
 46
0.0
 47
0.0
 48
0.0
 49
2.5
140
2.5
141
2.5
142
0.0
143
0.03937007874
144
1.0
145
0.0
146
1.0
147
0.625
148
0.0
 69
0
 70
0
 71
0
 72
0
 73
0
 74
0
 75
0
 76
0
 77
1
 78
8
 79
3
170
0
171
3
172
1
173
0
174
0
175
0
176
0
177
0
178
0
179
2
271
2
272
2
273
2
274
3
275
0
276
0
277
2
278
44
279
0
280
0
281
0
282
0
283
0
284
8
285
0
286
0
288
0
289
3
290
0
371
-2
372
-2
  0
ENDTAB
  0
TABLE
  2
BLOCK_RECORD
  5
9
330
0
100
AcDbSymbolTable
 70
2
  0
BLOCK_RECORD
  5
17
330
9
100
AcDbSymbolTableRecord
100
AcDbBlockTableRecord
  2
*Model_Space
340
1A
 70
0
280
1
281
0
  0
BLOCK_RECORD
  5
1B
330
9
100
AcDbSymbolTableRecord
100
AcDbBlockTableRecord
  2
*Paper_Space
340
1E
 70
0
280
1
281
0
  0
ENDTAB
  0
ENDSEC
  0
SECTION
  2
BLOCKS
  0
BLOCK
  5
18
330
17
100
AcDbEntity
  8
0
100
AcDbBlockBegin
  2
*Model_Space
 70
0
 10
0.0
 20
0.0
 30
0.0
  3
*Model_Space
  1

  0
ENDBLK
  5
19
330
17
100
AcDbEntity
  8
0
100
AcDbBlockEnd
  0
BLOCK
  5
1C
330
1B
100
AcDbEntity
  8
0
100
AcDbBlockBegin
  2
*Paper_Space
 70
0
 10
0.0
 20
0.0
 30
0.0
  3
*Paper_Space
  1

  0
ENDBLK
  5
1D
330
1B
100
AcDbEntity
  8
0
100
AcDbBlockEnd
  0
ENDSEC
  0
SECTION
  2
ENTITIES
  0
TEXT
  5
36
330
17
100
AcDbEntity
  8
META
100
AcDbText
 10
0.0
 20
-8.0
 30
0.0
 40
3.5
  1
AtelierCAD Patron T-shirt | TAILLE M
 11
0.0
 21
-8.0
 31
0.0
100
AcDbText
  0
LWPOLYLINE
  5
37
330
17
100
AcDbEntity
  8
COUTURE
100
AcDbPolyline
 90
118
 70
1
 10
27.613
 20
9.0741
 10
27.784
 20
9.055
 10
27.9812
 20
8.9989
 10
28.201999999999998
 20
8.9079
 10
28.4441
 20
8.784
 10
28.705
 20
8.6293
 10
28.9823
 20
8.4458
 10
29.2734
 20
8.2355
 10
29.5761
 20
8.0005
 10
29.8878
 20
7.7428
 10
30.2061
 20
7.4643999999999995
 10
30.5285
 20
7.1674
 10
30.8527
 20
6.8538
 10
31.176099999999998
 20
6.5256
 10
31.4964
 20
6.1849
 10
31.811
 20
5.833699999999999
 10
32.117599999999996
 20
5.4741
 10
32.4137
 20
5.1080000000000005
 10
32.6969
 20
4.7375
 10
32.9646
 20
4.3647
 10
33.2146
 20
3.9916
 10
33.4443
 20
3.6201
 10
33.6513
 20
3.2525000000000004
 10
33.8331
 20
2.8906
 10
33.9874
 20
2.5365
 10
34.111599999999996
 20
2.1922
 10
34.2034
 20
1.8599
 10
34.2602
 20
1.5415
 10
34.2797
 20
1.239
 10
49.863
 20
4.839
 10
49.911
 20
5.6699
 10
49.948899999999995
 20
6.5281
 10
49.9788
 20
7.4104
 10
50.0025
 20
8.3133
 10
50.0219
 20
9.2333
 10
50.038799999999995
 20
10.167000000000002
 10
50.0552
 20
11.111
 10
50.072900000000004
 20
12.061900000000001
 10
50.0939
 20
13.016100000000002
 10
50.1199
 20
13.970400000000001
 10
50.153
 20
14.9213
 10
50.194900000000004
 20
15.865300000000001
 10
50.2476
 20
16.799
 10
50.313
 20
17.719
 10
50.3929
 20
18.6219
 10
50.4892
 20
19.5041
 10
50.603899999999996
 20
20.3624
 10
50.738699999999994
 20
21.1933
 10
50.8957
 20
21.9933
 10
51.0766
 20
22.759
 10
51.2833
 20
23.487000000000002
 10
51.5178
 20
24.1739
 10
51.7819
 20
24.816100000000002
 10
52.077600000000004
 20
25.4104
 10
52.4066
 20
25.953300000000002
 10
52.7709
 20
26.441300000000002
 10
53.172399999999996
 20
26.871000000000002
 10
53.613
 20
27.239
 10
54.213
 20
73.239
 10
1.0129999999999981
 20
73.239
 10
1.6129999999999995
 20
27.239
 10
2.0535999999999994
 20
26.871000000000002
 10
2.455099999999998
 20
26.441300000000002
 10
2.819399999999998
 20
25.953300000000002
 10
3.1483999999999988
 20
25.4104
 10
3.444099999999999
 20
24.816100000000002
 10
3.708199999999998
 20
24.1739
 10
3.9426999999999985
 20
23.487000000000002
 10
4.1494
 20
22.759
 10
4.330300000000001
 20
21.9933
 10
4.487300000000001
 20
21.1933
 10
4.6221
 20
20.3624
 10
4.736799999999999
 20
19.5041
 10
4.833099999999998
 20
18.6219
 10
4.913
 20
17.719
 10
4.978400000000001
 20
16.799
 10
5.031099999999999
 20
15.865300000000001
 10
5.073
 20
14.9213
 10
5.106099999999998
 20
13.970400000000001
 10
5.132100000000001
 20
13.016100000000002
 10
5.1530999999999985
 20
12.061900000000001
 10
5.1708
 20
11.111
 10
5.187200000000001
 20
10.167000000000002
 10
5.2041
 20
9.2333
 10
5.223499999999998
 20
8.3133
 10
5.247199999999999
 20
7.4104
 10
5.277100000000001
 20
6.5281
 10
5.315000000000001
 20
5.6699
 10
5.3629999999999995
 20
4.839
 10
20.9463
 20
1.239
 10
20.9658
 20
1.5415
 10
21.0226
 20
1.8599
 10
21.1144
 20
2.1922
 10
21.238599999999998
 20
2.5365
 10
21.392899999999997
 20
2.8906
 10
21.5747
 20
3.2525000000000004
 10
21.7817
 20
3.6201
 10
22.0114
 20
3.9916
 10
22.2614
 20
4.3647
 10
22.5291
 20
4.7375
 10
22.8123
 20
5.1080000000000005
 10
23.1084
 20
5.4741
 10
23.415
 20
5.833699999999999
 10
23.729599999999998
 20
6.1849
 10
24.0499
 20
6.5256
 10
24.3733
 20
6.8538
 10
24.697499999999998
 20
7.1674
 10
25.0199
 20
7.4643999999999995
 10
25.3382
 20
7.7428
 10
25.6499
 20
8.0005
 10
25.9526
 20
8.2355
 10
26.2437
 20
8.4458
 10
26.521
 20
8.6293
 10
26.7819
 20
8.784
 10
27.024
 20
8.9079
 10
27.244799999999998
 20
8.9989
 10
27.442
 20
9.055
 10
27.613
 20
9.0741
  0
LWPOLYLINE
  5
38
330
17
100
AcDbEntity
  8
DECOUPE
100
AcDbPolyline
 90
116
 70
1
 10
27.613
 20
8.064
 10
27.6528
 20
8.0526
 10
27.783
 20
7.999
 10
27.9608
 20
7.9079999999999995
 10
28.1737
 20
7.7817
 10
28.4133
 20
7.6232
 10
28.6738
 20
7.435
 10
28.950699999999998
 20
7.22
 10
29.2399
 20
6.9809
 10
29.538
 20
6.7202
 10
29.842
 20
6.4402
 10
30.1488
 20
6.1434
 10
30.4556
 20
5.8321
 10
30.7596
 20
5.5087
 10
31.058
 20
5.1756
 10
31.3482
 20
4.8352
 10
31.627499999999998
 20
4.4898
 10
31.8933
 20
4.1421
 10
32.1429
 20
3.7946
 10
32.3737
 20
3.4501
 10
32.583
 20
3.1116
 10
32.768299999999996
 20
2.7825
 10
32.9273
 20
2.4661
 10
33.0577
 20
2.1667
 10
33.1579
 20
1.8889
 10
33.2271
 20
1.6385
 10
33.2659
 20
1.4211
 10
33.3575
 20
-0.00039999999999995595
 10
50.8181
 20
4.0333
 10
50.9097
 20
5.619
 10
50.9482
 20
6.4891
 10
50.9784
 20
7.3803
 10
51.0022
 20
8.2896
 10
51.021699999999996
 20
9.213700000000001
 10
51.0386
 20
10.148900000000001
 10
51.055
 20
11.093
 10
51.0727
 20
12.0416
 10
51.093599999999995
 20
12.9915
 10
51.1194
 20
13.939400000000001
 10
51.1522
 20
14.8817
 10
51.1936
 20
15.815000000000001
 10
51.245599999999996
 20
16.7354
 10
51.3099
 20
17.6395
 10
51.388099999999994
 20
18.523600000000002
 10
51.482
 20
19.3836
 10
51.593199999999996
 20
20.2161
 10
51.7232
 20
21.0169
 10
51.8733
 20
21.782
 10
52.0447
 20
22.5073
 10
52.2381
 20
23.1887
 10
52.4543
 20
23.8219
 10
52.6931
 20
24.4027
 10
52.9544
 20
24.9277
 10
53.2368
 20
25.393800000000002
 10
53.5392
 20
25.7989
 10
53.8609
 20
26.1431
 10
54.606899999999996
 20
26.7662
 10
55.2261
 20
74.239
 10
-9.999999999976694e-05
 20
74.239
 10
0.6190999999999995
 20
26.7662
 10
1.3650999999999982
 20
26.1431
 10
1.686799999999998
 20
25.7989
 10
1.9892000000000003
 20
25.393800000000002
 10
2.2715999999999994
 20
24.9277
 10
2.532899999999998
 20
24.4027
 10
2.771699999999999
 20
23.8219
 10
2.9879
 20
23.1887
 10
3.1813000000000002
 20
22.5073
 10
3.3526999999999987
 20
21.782
 10
3.5028000000000006
 20
21.0169
 10
3.6327999999999996
 20
20.2161
 10
3.7439999999999998
 20
19.3836
 10
3.837900000000001
 20
18.523600000000002
 10
3.9161
 20
17.6395
 10
3.9803999999999995
 20
16.7354
 10
4.032399999999999
 20
15.815000000000001
 10
4.0737999999999985
 20
14.8817
 10
4.1066
 20
13.939400000000001
 10
4.1324000000000005
 20
12.9915
 10
4.153299999999998
 20
12.0416
 10
4.170999999999999
 20
11.093
 10
4.1874
 20
10.149600000000001
 10
4.2043
 20
9.213700000000001
 10
4.223800000000001
 20
8.2896
 10
4.2475999999999985
 20
7.3803
 10
4.277799999999999
 20
6.4891
 10
4.316299999999998
 20
5.619
 10
4.407899999999998
 20
4.0333
 10
21.868499999999997
 20
-0.00039999999999995595
 10
21.9601
 20
1.4211
 10
21.9989
 20
1.6385
 10
22.0681
 20
1.8889
 10
22.1683
 20
2.1667
 10
22.2987
 20
2.4661
 10
22.4577
 20
2.7825
 10
22.643
 20
3.1116
 10
22.8523
 20
3.4501
 10
23.0831
 20
3.7946
 10
23.3327
 20
4.1421
 10
23.5985
 20
4.4898
 10
23.8778
 20
4.8352
 10
24.168
 20
5.1756
 10
24.4664
 20
5.5087
 10
24.7704
 20
5.8321
 10
25.077199999999998
 20
6.1434
 10
25.384
 20
6.4402
 10
25.688
 20
6.7202
 10
25.9861
 20
6.9809
 10
26.2753
 20
7.22
 10
26.5522
 20
7.435
 10
26.8127
 20
7.6232
 10
27.0523
 20
7.7817
 10
27.2652
 20
7.9079999999999995
 10
27.442999999999998
 20
7.999
 10
27.5732
 20
8.0526
 10
27.613
 20
8.064
  0
LINE
  5
39
330
17
100
AcDbEntity
  8
DROIT_FIL
100
AcDbLine
 10
27.613
 20
17.0741
 30
0.0
 11
27.613
 21
65.239
 31
0.0
  0
LWPOLYLINE
  5
3A
330
17
100
AcDbEntity
  8
CRANS
100
AcDbPolyline
 90
3
 70
0
 10
49.063
 20
4.839
 10
49.863
 20
3.4390000000000005
 10
50.663
 20
4.839
  0
LWPOLYLINE
  5
3B
330
17
100
AcDbEntity
  8
CRANS
100
AcDbPolyline
 90
3
 70
0
 10
4.563
 20
4.839
 10
5.3629999999999995
 20
3.4390000000000005
 10
6.162999999999999
 20
4.839
  0
LWPOLYLINE
  5
3C
330
17
100
AcDbEntity
  8
CRANS
100
AcDbPolyline
 90
3
 70
0
 10
52.813
 20
27.239
 10
53.613
 20
25.839000000000002
 10
54.413
 20
27.239
  0
LWPOLYLINE
  5
3D
330
17
100
AcDbEntity
  8
CRANS
100
AcDbPolyline
 90
3
 70
0
 10
0.8129999999999995
 20
27.239
 10
1.6129999999999995
 20
25.839000000000002
 10
2.4129999999999994
 20
27.239
  0
LINE
  5
3E
330
17
100
AcDbEntity
  8
MESURES
100
AcDbLine
 10
1.6129999999999995
 20
30.239
 30
0.0
 11
53.613
 21
30.239
 31
0.0
  0
LINE
  5
3F
330
17
100
AcDbEntity
  8
MESURES
100
AcDbLine
 10
58.213
 20
1.239
 30
0.0
 11
58.213
 21
73.239
 31
0.0
  0
TEXT
  5
40
330
17
100
AcDbEntity
  8
ANNOTATION
100
AcDbText
 10
27.613
 20
35.799
 30
0.0
 40
3.2
  1
DEVANT M
 72
1
 11
27.613
 21
35.799
 31
0.0
100
AcDbText
 73
2
  0
LWPOLYLINE
  5
41
330
17
100
AcDbEntity
  8
COUTURE
100
AcDbPolyline
 90
118
 70
1
 10
100.839
 20
4.3827
 10
101.01
 20
4.375
 10
101.2072
 20
4.3523
 10
101.428
 20
4.3155
 10
101.6701
 20
4.2654
 10
101.931
 20
4.2029
 10
102.2083
 20
4.1287
 10
102.4994
 20
4.0438
 10
102.8021
 20
3.9488000000000003
 10
103.1138
 20
3.8446
 10
103.4321
 20
3.7321
 10
103.7545
 20
3.6121
 10
104.0787
 20
3.4852999999999996
 10
104.4021
 20
3.3526999999999996
 10
104.7224
 20
3.215
 10
105.037
 20
3.073
 10
105.3436
 20
2.9276999999999997
 10
105.6397
 20
2.7797
 10
105.9229
 20
2.63
 10
106.1906
 20
2.4793000000000003
 10
106.4406
 20
2.3285
 10
106.6703
 20
2.1784
 10
106.87729999999999
 20
2.0298
 10
107.0591
 20
1.8835
 10
107.2134
 20
1.7404
 10
107.3376
 20
1.6013
 10
107.4294
 20
1.4668999999999999
 10
107.4862
 20
1.3382
 10
107.5057
 20
1.216
 10
123.089
 20
4.816
 10
123.14320000000001
 20
5.6469000000000005
 10
123.1991
 20
6.5051000000000005
 10
123.2571
 20
7.3874
 10
123.3177
 20
8.2903
 10
123.3815
 20
9.2103
 10
123.4488
 20
10.144
 10
123.5202
 20
11.088
 10
123.5963
 20
12.0389
 10
123.6774
 20
12.9931
 10
123.7641
 20
13.9474
 10
123.8569
 20
14.898299999999999
 10
123.9562
 20
15.8423
 10
124.0626
 20
16.776
 10
124.1765
 20
17.696
 10
124.29849999999999
 20
18.5989
 10
124.4289
 20
19.4811
 10
124.5684
 20
20.3394
 10
124.7175
 20
21.1703
 10
124.8765
 20
21.9703
 10
125.04599999999999
 20
22.736
 10
125.2265
 20
23.464000000000002
 10
125.4185
 20
24.1509
 10
125.6224
 20
24.793100000000003
 10
125.8389
 20
25.3874
 10
126.06819999999999
 20
25.930300000000003
 10
126.311
 20
26.418300000000002
 10
126.5678
 20
26.848000000000003
 10
126.839
 20
27.216
 10
127.439
 20
73.216
 10
74.239
 20
73.216
 10
74.839
 20
27.216
 10
75.11019999999999
 20
26.848000000000003
 10
75.36699999999999
 20
26.418300000000002
 10
75.6098
 20
25.930300000000003
 10
75.8391
 20
25.3874
 10
76.0556
 20
24.793100000000003
 10
76.2595
 20
24.1509
 10
76.4515
 20
23.464000000000002
 10
76.632
 20
22.736
 10
76.8015
 20
21.9703
 10
76.9605
 20
21.1703
 10
77.1096
 20
20.3394
 10
77.2491
 20
19.4811
 10
77.37950000000001
 20
18.5989
 10
77.5015
 20
17.696
 10
77.6154
 20
16.776
 10
77.7218
 20
15.8423
 10
77.8211
 20
14.898299999999999
 10
77.9139
 20
13.9474
 10
78.00059999999999
 20
12.9931
 10
78.0817
 20
12.0389
 10
78.1578
 20
11.088
 10
78.22919999999999
 20
10.144
 10
78.2965
 20
9.2103
 10
78.3603
 20
8.2903
 10
78.4209
 20
7.3874
 10
78.4789
 20
6.5051000000000005
 10
78.53479999999999
 20
5.6469000000000005
 10
78.589
 20
4.816
 10
94.17229999999999
 20
1.216
 10
94.1918
 20
1.3382
 10
94.2486
 20
1.4668999999999999
 10
94.3404
 20
1.6013
 10
94.4646
 20
1.7404
 10
94.6189
 20
1.8835
 10
94.8007
 20
2.0298
 10
95.0077
 20
2.1784
 10
95.2374
 20
2.3285
 10
95.4874
 20
2.4793000000000003
 10
95.7551
 20
2.63
 10
96.03829999999999
 20
2.7797
 10
96.3344
 20
2.9276999999999997
 10
96.64099999999999
 20
3.073
 10
96.9556
 20
3.215
 10
97.2759
 20
3.3526999999999996
 10
97.5993
 20
3.4852999999999996
 10
97.9235
 20
3.6121
 10
98.24589999999999
 20
3.7321
 10
98.5642
 20
3.8446
 10
98.8759
 20
3.9488000000000003
 10
99.1786
 20
4.0438
 10
99.4697
 20
4.1287
 10
99.747
 20
4.2029
 10
100.00789999999999
 20
4.2654
 10
100.25
 20
4.3155
 10
100.4708
 20
4.3523
 10
100.66799999999999
 20
4.375
 10
100.839
 20
4.3827
  0
LWPOLYLINE
  5
42
330
17
100
AcDbEntity
  8
DECOUPE
100
AcDbPolyline
 90
114
 70
1
 10
95.1519
 20
1.0087
 10
95.1791
 20
1.0392
 10
95.2732
 20
1.1264
 10
95.4062
 20
1.2335
 10
95.5731
 20
1.3533
 10
95.7693
 20
1.4815
 10
95.991
 20
1.6153
 10
96.2341
 20
1.7521
 10
96.4956
 20
1.8902999999999999
 10
96.7721
 20
2.0285
 10
97.0609
 20
2.1654
 10
97.3588
 20
2.2998000000000003
 10
97.6631
 20
2.4307
 10
97.97109999999999
 20
2.557
 10
98.2801
 20
2.6778
 10
98.587
 20
2.792
 10
98.8894
 20
2.8989000000000003
 10
99.1842
 20
2.9975
 10
99.4683
 20
3.0866
 10
99.739
 20
3.1656
 10
99.9928
 20
3.2335000000000003
 10
100.22579999999999
 20
3.2893
 10
100.4336
 20
3.3323
 10
100.6103
 20
3.3617999999999997
 10
100.7478
 20
3.3776
 10
100.839
 20
3.3817000000000004
 10
100.9302
 20
3.3776
 10
101.0677
 20
3.3617999999999997
 10
101.2444
 20
3.3323
 10
101.4522
 20
3.2893
 10
101.6852
 20
3.2335000000000003
 10
101.939
 20
3.1656
 10
102.2097
 20
3.0866
 10
102.4938
 20
2.9975
 10
102.7886
 20
2.8989000000000003
 10
103.091
 20
2.792
 10
103.39789999999999
 20
2.6778
 10
103.7069
 20
2.557
 10
104.0149
 20
2.4307
 10
104.3192
 20
2.2998000000000003
 10
104.6171
 20
2.1654
 10
104.9059
 20
2.0285
 10
105.1824
 20
1.8902999999999999
 10
105.4439
 20
1.7521
 10
105.687
 20
1.6153
 10
105.9087
 20
1.4815
 10
106.1049
 20
1.3533
 10
106.2718
 20
1.2335
 10
106.4048
 20
1.1264
 10
106.49889999999999
 20
1.0392
 10
106.5261
 20
1.0087
 10
106.687
 20
0.0004999999999999449
 10
124.0385
 20
4.009
 10
124.1411
 20
5.5818
 10
124.197
 20
6.4398
 10
124.25489999999999
 20
7.3211
 10
124.3154
 20
8.222199999999999
 10
124.37899999999999
 20
9.1398
 10
124.4461
 20
10.0703
 10
124.5172
 20
11.010399999999999
 10
124.5929
 20
11.9567
 10
124.6736
 20
12.9055
 10
124.7597
 20
13.8536
 10
124.8518
 20
14.7974
 10
124.9503
 20
15.7334
 10
125.0556
 20
16.658
 10
125.1682
 20
17.567600000000002
 10
125.2887
 20
18.4588
 10
125.4171
 20
19.3278
 10
125.5541
 20
20.1709
 10
125.70009999999999
 20
20.9845
 10
125.8552
 20
21.7647
 10
126.0196
 20
22.5076
 10
126.1936
 20
23.209
 10
126.3769
 20
23.864900000000002
 10
126.5692
 20
24.4705
 10
126.7699
 20
25.0215
 10
126.9773
 20
25.512600000000003
 10
127.1891
 20
25.9384
 10
127.4014
 20
26.2936
 10
127.8347
 20
26.881500000000003
 10
128.4521
 20
74.216
 10
73.2259
 20
74.216
 10
73.8433
 20
26.881500000000003
 10
74.2766
 20
26.2936
 10
74.4889
 20
25.9384
 10
74.7007
 20
25.512600000000003
 10
74.90809999999999
 20
25.0215
 10
75.1088
 20
24.4705
 10
75.30109999999999
 20
23.864900000000002
 10
75.4844
 20
23.209
 10
75.6584
 20
22.5076
 10
75.8228
 20
21.7647
 10
75.9779
 20
20.9845
 10
76.12389999999999
 20
20.1709
 10
76.26089999999999
 20
19.3278
 10
76.38929999999999
 20
18.4588
 10
76.5098
 20
17.567600000000002
 10
76.6224
 20
16.658
 10
76.7277
 20
15.7334
 10
76.8262
 20
14.7974
 10
76.9183
 20
13.8536
 10
77.0044
 20
12.9055
 10
77.0851
 20
11.9567
 10
77.1608
 20
11.010399999999999
 10
77.2319
 20
10.0703
 10
77.299
 20
9.1398
 10
77.3626
 20
8.222199999999999
 10
77.4231
 20
7.3211
 10
77.481
 20
6.4398
 10
77.5369
 20
5.5819
 10
77.6395
 20
4.009
 10
94.991
 20
0.0004999999999999449
 10
95.1519
 20
1.0087
  0
LINE
  5
43
330
17
100
AcDbEntity
  8
DROIT_FIL
100
AcDbLine
 10
100.839
 20
12.3827
 30
0.0
 11
100.839
 21
65.216
 31
0.0
  0
LWPOLYLINE
  5
44
330
17
100
AcDbEntity
  8
CRANS
100
AcDbPolyline
 90
3
 70
0
 10
122.289
 20
4.816
 10
123.089
 20
3.416
 10
123.889
 20
4.816
  0
LWPOLYLINE
  5
45
330
17
100
AcDbEntity
  8
CRANS
100
AcDbPolyline
 90
3
 70
0
 10
77.789
 20
4.816
 10
78.589
 20
3.416
 10
79.389
 20
4.816
  0
LWPOLYLINE
  5
46
330
17
100
AcDbEntity
  8
CRANS
100
AcDbPolyline
 90
3
 70
0
 10
126.039
 20
27.216
 10
126.839
 20
25.816000000000003
 10
127.639
 20
27.216
  0
LWPOLYLINE
  5
47
330
17
100
AcDbEntity
  8
CRANS
100
AcDbPolyline
 90
3
 70
0
 10
74.039
 20
27.216
 10
74.839
 20
25.816000000000003
 10
75.639
 20
27.216
  0
LINE
  5
48
330
17
100
AcDbEntity
  8
MESURES
100
AcDbLine
 10
74.839
 20
30.216
 30
0.0
 11
126.839
 21
30.216
 31
0.0
  0
LINE
  5
49
330
17
100
AcDbEntity
  8
MESURES
100
AcDbLine
 10
131.439
 20
1.216
 30
0.0
 11
131.439
 21
73.216
 31
0.0
  0
TEXT
  5
4A
330
17
100
AcDbEntity
  8
ANNOTATION
100
AcDbText
 10
100.839
 20
35.776
 30
0.0
 40
3.2
  1
DOS M
 72
1
 11
100.839
 21
35.776
 31
0.0
100
AcDbText
 73
2
  0
LWPOLYLINE
  5
4B
330
17
100
AcDbEntity
  8
COUTURE
100
AcDbPolyline
 90
60
 70
1
 10
166.396
 20
1.006
 10
167.2985
 20
1.1077
 10
168.21749999999997
 20
1.2405
 10
169.14919999999998
 20
1.4032
 10
170.0896
 20
1.5944
 10
171.035
 20
1.8129
 10
171.98149999999998
 20
2.0575
 10
172.9254
 20
2.3266999999999998
 10
173.8627
 20
2.6193999999999997
 10
174.78969999999998
 20
2.9341999999999997
 10
175.7025
 20
3.2699
 10
176.5972
 20
3.6253
 10
177.47009999999997
 20
3.9989
 10
178.3174
 20
4.3896
 10
179.1351
 20
4.796
 10
179.9195
 20
5.2170000000000005
 10
180.6667
 20
5.6511000000000005
 10
181.3729
 20
6.0971
 10
182.0342
 20
6.5538
 10
182.6469
 20
7.0198
 10
183.2071
 20
7.4939
 10
183.71099999999998
 20
7.9749
 10
184.1547
 20
8.4613
 10
184.53439999999998
 20
8.9519
 10
184.84629999999999
 20
9.4456
 10
185.0865
 20
9.940900000000001
 10
185.25119999999998
 20
10.4366
 10
185.33659999999998
 20
10.9314
 10
185.3389
 20
11.424
 10
179.2771
 20
23.006
 10
153.51489999999998
 20
23.006
 10
147.45309999999998
 20
11.424
 10
147.4554
 20
10.9314
 10
147.5408
 20
10.4366
 10
147.70549999999997
 20
9.940900000000001
 10
147.9457
 20
9.4456
 10
148.2576
 20
8.9519
 10
148.63729999999998
 20
8.4613
 10
149.081
 20
7.9749
 10
149.58489999999998
 20
7.4939
 10
150.14509999999999
 20
7.0198
 10
150.75779999999997
 20
6.5538
 10
151.4191
 20
6.0971
 10
152.12529999999998
 20
5.6511000000000005
 10
152.87249999999997
 20
5.2170000000000005
 10
153.65689999999998
 20
4.796
 10
154.47459999999998
 20
4.3896
 10
155.3219
 20
3.9989
 10
156.1948
 20
3.6253
 10
157.0895
 20
3.2699
 10
158.0023
 20
2.9341999999999997
 10
158.92929999999998
 20
2.6193999999999997
 10
159.86659999999998
 20
2.3266999999999998
 10
160.8105
 20
2.0575
 10
161.75699999999998
 20
1.8129
 10
162.70239999999998
 20
1.5944
 10
163.6428
 20
1.4032
 10
164.5745
 20
1.2405
 10
165.49349999999998
 20
1.1077
 10
166.396
 20
1.006
  0
LWPOLYLINE
  5
4C
330
17
100
AcDbEntity
  8
DECOUPE
100
AcDbPolyline
 90
60
 70
1
 10
166.396
 20
-0.00029999999999996696
 10
167.426
 20
0.11570000000000003
 10
168.37509999999997
 20
0.2529
 10
169.33489999999998
 20
0.4205
 10
170.3018
 20
0.6171
 10
171.2727
 20
0.8415
 10
172.2438
 20
1.0924
 10
173.21159999999998
 20
1.3685
 10
174.1726
 20
1.6684999999999999
 10
175.1231
 20
1.9912999999999998
 10
176.0597
 20
2.3358
 10
176.97859999999997
 20
2.7008
 10
177.8763
 20
3.085
 10
178.74939999999998
 20
3.4875999999999996
 10
179.5942
 20
3.9074999999999998
 10
180.4073
 20
4.3439
 10
181.18499999999997
 20
4.7957
 10
181.9243
 20
5.2626
 10
182.6213
 20
5.744000000000001
 10
183.273
 20
6.2396
 10
183.8759
 20
6.7499
 10
184.42649999999998
 20
7.2754
 10
184.92079999999999
 20
7.8173
 10
185.3544
 20
8.3775
 10
185.7216
 20
8.9588
 10
186.01479999999998
 20
9.5635
 10
186.2239
 20
10.1925
 10
186.3362
 20
10.8434
 10
186.33999999999997
 20
11.6677
 10
179.8824
 20
24.006
 10
152.90959999999998
 20
24.006
 10
146.452
 20
11.6677
 10
146.45579999999998
 20
10.8434
 10
146.5681
 20
10.1925
 10
146.7772
 20
9.5635
 10
147.07039999999998
 20
8.9588
 10
147.43759999999997
 20
8.3775
 10
147.8712
 20
7.8173
 10
148.3655
 20
7.2754
 10
148.91609999999997
 20
6.7499
 10
149.51899999999998
 20
6.2396
 10
150.17069999999998
 20
5.744000000000001
 10
150.86769999999999
 20
5.2626
 10
151.607
 20
4.7957
 10
152.38469999999998
 20
4.3439
 10
153.19779999999997
 20
3.9074999999999998
 10
154.0426
 20
3.4875999999999996
 10
154.9157
 20
3.085
 10
155.8134
 20
2.7008
 10
156.73229999999998
 20
2.3358
 10
157.66889999999998
 20
1.9912999999999998
 10
158.61939999999998
 20
1.6684999999999999
 10
159.5804
 20
1.3685
 10
160.54819999999998
 20
1.0924
 10
161.5193
 20
0.8415
 10
162.4902
 20
0.6171
 10
163.4571
 20
0.4205
 10
164.4169
 20
0.2529
 10
165.36599999999999
 20
0.11570000000000003
 10
166.396
 20
-0.00029999999999996696
  0
LINE
  5
4D
330
17
100
AcDbEntity
  8
DROIT_FIL
100
AcDbLine
 10
166.396
 20
15.424
 30
0.0
 11
166.396
 21
18.006
 31
0.0
  0
LWPOLYLINE
  5
4E
330
17
100
AcDbEntity
  8
CRANS
100
AcDbPolyline
 90
3
 70
0
 10
165.59599999999998
 20
1.006
 10
166.396
 20
-1.094
 10
167.196
 20
1.006
  0
LWPOLYLINE
  5
4F
330
17
100
AcDbEntity
  8
CRANS
100
AcDbPolyline
 90
3
 70
0
 10
180.03999999999996
 20
5.7571
 10
180.83999999999997
 20
4.357100000000001
 10
181.64
 20
5.7571
  0
LWPOLYLINE
  5
50
330
17
100
AcDbEntity
  8
CRANS
100
AcDbPolyline
 90
3
 70
0
 10
151.152
 20
5.7571
 10
151.952
 20
3.6571000000000002
 10
152.752
 20
5.7571
  0
LWPOLYLINE
  5
51
330
17
100
AcDbEntity
  8
CRANS
100
AcDbPolyline
 90
3
 70
0
 10
184.53889999999998
 20
11.424
 10
185.3389
 20
10.024
 10
186.1389
 20
11.424
  0
LWPOLYLINE
  5
52
330
17
100
AcDbEntity
  8
CRANS
100
AcDbPolyline
 90
3
 70
0
 10
146.65309999999997
 20
11.424
 10
147.45309999999998
 20
10.024
 10
148.2531
 20
11.424
  0
LINE
  5
53
330
17
100
AcDbEntity
  8
MESURES
100
AcDbLine
 10
189.3389
 20
11.424
 30
0.0
 11
189.3389
 21
23.006
 31
0.0
  0
LINE
  5
54
330
17
100
AcDbEntity
  8
MESURES
100
AcDbLine
 10
147.45309999999998
 20
11.424
 30
0.0
 11
185.3389
 21
11.424
 31
0.0
  0
TEXT
  5
55
330
17
100
AcDbEntity
  8
ANNOTATION
100
AcDbText
 10
166.396
 20
12.446
 30
0.0
 40
3.2
  1
MANCHE M
 72
1
 11
166.396
 21
12.446
 31
0.0
100
AcDbText
 73
2
  0
LWPOLYLINE
  5
56
330
17
100
AcDbEntity
  8
COUTURE
100
AcDbPolyline
 90
5
 70
1
 10
205.33979999999997
 20
1.0
 10
251.98019999999997
 20
1.0
 10
251.98019999999997
 20
5.2
 10
205.33979999999997
 20
5.2
 10
205.33979999999997
 20
1.0
  0
LWPOLYLINE
  5
57
330
17
100
AcDbEntity
  8
DECOUPE
100
AcDbPolyline
 90
5
 70
1
 10
204.33979999999997
 20
0.0
 10
252.98019999999997
 20
0.0
 10
252.98019999999997
 20
6.2
 10
204.33979999999997
 20
6.2
 10
204.33979999999997
 20
0.0
  0
LINE
  5
58
330
17
100
AcDbEntity
  8
DROIT_FIL
100
AcDbLine
 10
210.33979999999997
 20
3.1
 30
0.0
 11
246.98019999999997
 21
3.1
 31
0.0
  0
LWPOLYLINE
  5
59
330
17
100
AcDbEntity
  8
CRANS
100
AcDbPolyline
 90
3
 70
0
 10
227.85999999999996
 20
1.0
 10
228.65999999999997
 20
-0.3999999999999999
 10
229.45999999999998
 20
1.0
  0
LWPOLYLINE
  5
5A
330
17
100
AcDbEntity
  8
CRANS
100
AcDbPolyline
 90
3
 70
0
 10
227.85999999999996
 20
5.2
 10
228.65999999999997
 20
3.1
 10
229.45999999999998
 20
5.2
  0
LWPOLYLINE
  5
5B
330
17
100
AcDbEntity
  8
CRANS
100
AcDbPolyline
 90
3
 70
0
 10
216.19989999999996
 20
1.0
 10
216.99989999999997
 20
-0.3999999999999999
 10
217.79989999999998
 20
1.0
  0
LWPOLYLINE
  5
5C
330
17
100
AcDbEntity
  8
CRANS
100
AcDbPolyline
 90
3
 70
0
 10
239.52009999999996
 20
1.0
 10
240.32009999999997
 20
-0.3999999999999999
 10
241.12009999999998
 20
1.0
  0
LINE
  5
5D
330
17
100
AcDbEntity
  8
MESURES
100
AcDbLine
 10
205.33979999999997
 20
7.2
 30
0.0
 11
251.98019999999997
 21
7.2
 31
0.0
  0
LINE
  5
5E
330
17
100
AcDbEntity
  8
MESURES
100
AcDbLine
 10
253.98019999999997
 20
1.0
 30
0.0
 11
253.98019999999997
 21
5.2
 31
0.0
  0
TEXT
  5
5F
330
17
100
AcDbEntity
  8
ANNOTATION
100
AcDbText
 10
228.65999999999997
 20
3.1
 30
0.0
 40
3.2
  1
BORD-CÔTE M
 72
1
 11
228.65999999999997
 21
3.1
 31
0.0
100
AcDbText
 73
2
  0
ENDSEC
  0
SECTION
  2
OBJECTS
  0
DICTIONARY
  5
A
330
0
100
AcDbDictionary
280
0
281
1
  3
ACAD_COLOR
350
B
  3
ACAD_GROUP
350
C
  3
ACAD_LAYOUT
350
D
  3
ACAD_MATERIAL
350
E
  3
ACAD_MLEADERSTYLE
350
F
  3
ACAD_MLINESTYLE
350
10
  3
ACAD_PLOTSETTINGS
350
11
  3
ACAD_PLOTSTYLENAME
350
12
  3
ACAD_SCALELIST
350
14
  3
ACAD_TABLESTYLE
350
15
  3
ACAD_VISUALSTYLE
350
16
  3
EZDXF_META
350
2D
  0
DICTIONARY
  5
B
330
A
100
AcDbDictionary
280
0
281
1
  0
DICTIONARY
  5
C
330
A
100
AcDbDictionary
280
0
281
1
  0
DICTIONARY
  5
D
330
A
100
AcDbDictionary
280
0
281
1
  3
Model
350
1A
  3
Layout1
350
1E
  0
DICTIONARY
  5
E
330
A
100
AcDbDictionary
280
0
281
1
  3
ByBlock
350
1F
  3
ByLayer
350
20
  3
Global
350
21
  0
DICTIONARY
  5
F
330
A
100
AcDbDictionary
280
0
281
1
  3
Standard
350
2C
  0
DICTIONARY
  5
10
330
A
100
AcDbDictionary
280
0
281
1
  3
Standard
350
22
  0
DICTIONARY
  5
11
330
A
100
AcDbDictionary
280
0
281
1
  0
ACDBDICTIONARYWDFLT
  5
12
330
A
100
AcDbDictionary
280
0
281
1
  3
Normal
350
13
100
AcDbDictionaryWithDefault
340
13
  0
ACDBPLACEHOLDER
  5
13
330
12
  0
DICTIONARY
  5
14
330
A
100
AcDbDictionary
280
0
281
1
  0
DICTIONARY
  5
15
330
A
100
AcDbDictionary
280
0
281
1
  0
DICTIONARY
  5
16
330
A
100
AcDbDictionary
280
0
281
1
  0
LAYOUT
  5
1A
330
D
100
AcDbPlotSettings
  1

  2
Adobe PDF
  4
A3
  6

 40
7.5
 41
20.0
 42
7.5
 43
20.0
 44
420.0
 45
297.0
 46
0.0
 47
0.0
 48
0.0
 49
0.0
140
0.0
141
0.0
142
1.0
143
1.0
 70
1024
 72
1
 73
0
 74
5
  7

 75
16
 76
0
 77
2
 78
300
147
1.0
148
0.0
149
0.0
100
AcDbLayout
  1
Model
 70
1
 71
0
 10
0.0
 20
0.0
 11
420.0
 21
297.0
 12
0.0
 22
0.0
 32
0.0
 14
1e+20
 24
1e+20
 34
1e+20
 15
-1e+20
 25
-1e+20
 35
-1e+20
146
0.0
 13
0.0
 23
0.0
 33
0.0
 16
1.0
 26
0.0
 36
0.0
 17
0.0
 27
1.0
 37
0.0
 76
1
330
17
  0
LAYOUT
  5
1E
330
D
100
AcDbPlotSettings
  1

  2
Adobe PDF
  4
A3
  6

 40
7.5
 41
20.0
 42
7.5
 43
20.0
 44
420.0
 45
297.0
 46
0.0
 47
0.0
 48
0.0
 49
0.0
140
0.0
141
0.0
142
1.0
143
1.0
 70
0
 72
1
 73
0
 74
5
  7

 75
16
 76
0
 77
2
 78
300
147
1.0
148
0.0
149
0.0
100
AcDbLayout
  1
Layout1
 70
1
 71
1
 10
0.0
 20
0.0
 11
420.0
 21
297.0
 12
0.0
 22
0.0
 32
0.0
 14
1e+20
 24
1e+20
 34
1e+20
 15
-1e+20
 25
-1e+20
 35
-1e+20
146
0.0
 13
0.0
 23
0.0
 33
0.0
 16
1.0
 26
0.0
 36
0.0
 17
0.0
 27
1.0
 37
0.0
 76
1
330
1B
  0
MATERIAL
  5
1F
102
{ACAD_REACTORS
330
E
102
}
330
E
100
AcDbMaterial
  1
ByBlock
  2

 70
0
 40
1.0
 71
1
 41
1.0
 91
-1023410177
 42
1.0
 72
1
  3

 73
1
 74
1
 75
1
 44
0.5
 73
0
 45
1.0
 46
1.0
 77
1
  4

 78
1
 79
1
170
1
 48
1.0
171
1
  6

172
1
173
1
174
1
140
1.0
141
1.0
175
1
  7

176
1
177
1
178
1
143
1.0
179
1
  8

270
1
271
1
272
1
145
1.0
146
1.0
273
1
  9

274
1
275
1
276
1
 42
1.0
 72
1
  3

 73
1
 74
1
 75
1
 94
63
  0
MATERIAL
  5
20
102
{ACAD_REACTORS
330
E
102
}
330
E
100
AcDbMaterial
  1
ByLayer
  2

 70
0
 40
1.0
 71
1
 41
1.0
 91
-1023410177
 42
1.0
 72
1
  3

 73
1
 74
1
 75
1
 44
0.5
 73
0
 45
1.0
 46
1.0
 77
1
  4

 78
1
 79
1
170
1
 48
1.0
171
1
  6

172
1
173
1
174
1
140
1.0
141
1.0
175
1
  7

176
1
177
1
178
1
143
1.0
179
1
  8

270
1
271
1
272
1
145
1.0
146
1.0
273
1
  9

274
1
275
1
276
1
 42
1.0
 72
1
  3

 73
1
 74
1
 75
1
 94
63
  0
MATERIAL
  5
21
102
{ACAD_REACTORS
330
E
102
}
330
E
100
AcDbMaterial
  1
Global
  2

 70
0
 40
1.0
 71
1
 41
1.0
 91
-1023410177
 42
1.0
 72
1
  3

 73
1
 74
1
 75
1
 44
0.5
 73
0
 45
1.0
 46
1.0
 77
1
  4

 78
1
 79
1
170
1
 48
1.0
171
1
  6

172
1
173
1
174
1
140
1.0
141
1.0
175
1
  7

176
1
177
1
178
1
143
1.0
179
1
  8

270
1
271
1
272
1
145
1.0
146
1.0
273
1
  9

274
1
275
1
276
1
 42
1.0
 72
1
  3

 73
1
 74
1
 75
1
 94
63
  0
MLINESTYLE
  5
22
102
{ACAD_REACTORS
330
10
102
}
330
10
100
AcDbMlineStyle
  2
Standard
 70
0
  3

 62
256
 51
90.0
 52
90.0
 71
2
 49
0.5
 62
256
  6
BYLAYER
 49
-0.5
 62
256
  6
BYLAYER
  0
MLEADERSTYLE
  5
2C
102
{ACAD_REACTORS
330
F
102
}
330
F
100
AcDbMLeaderStyle
179
2
170
2
171
1
172
0
 90
2
 40
0.0
 41
0.0
173
1
 91
-1056964608
 92
-2
290
1
 42
2.0
291
1
 43
8.0
  3
Standard
 44
4.0
300

342
29
174
1
175
1
176
0
178
1
 93
-1056964608
 45
4.0
292
0
297
0
 46
4.0
 94
-1056964608
 47
1.0
 49
1.0
140
1.0
294
1
141
0.0
177
0
142
1.0
295
0
296
0
143
3.75
271
0
272
9
273
9
  0
DICTIONARY
  5
2D
330
A
100
AcDbDictionary
281
1
  3
CREATED_BY_EZDXF
350
2E
  3
WRITTEN_BY_EZDXF
350
62
  0
DICTIONARYVAR
  5
2E
330
2D
100
DictionaryVariables
280
0
  1
1.1.3 @ 2026-05-12T13:35:08.787184+00:00
  0
DICTIONARYVAR
  5
62
330
2D
100
DictionaryVariables
280
0
  1
1.1.3 @ 2026-05-12T13:35:08.790251+00:00
  0
ENDSEC
  0
EOF
